<svg width="486" height="200" viewBox="0 0 486 200" fill="none" xmlns="http://www.w3.org/2000/svg">
<rect y="69" width="486" height="70" fill="#C7A17A"/>
<path d="M40.542 40.284V54H27.798V40.122L13.542 16.2H26.988L34.71 29.268L42.486 16.2H54.798L40.542 40.284ZM74.5991 54.864C70.5311 54.864 66.8771 54.018 63.6371 52.326C60.3971 50.634 57.8591 48.294 56.0231 45.306C54.1871 42.282 53.2691 38.88 53.2691 35.1C53.2691 31.32 54.1871 27.936 56.0231 24.948C57.8591 21.924 60.3971 19.566 63.6371 17.874C66.8771 16.182 70.5311 15.336 74.5991 15.336C78.6671 15.336 82.3211 16.182 85.5611 17.874C88.8011 19.566 91.3391 21.924 93.1751 24.948C95.0111 27.936 95.9291 31.32 95.9291 35.1C95.9291 38.88 95.0111 42.282 93.1751 45.306C91.3391 48.294 88.8011 50.634 85.5611 52.326C82.3211 54.018 78.6671 54.864 74.5991 54.864ZM74.5991 44.55C76.1831 44.55 77.6051 44.172 78.8651 43.416C80.1611 42.624 81.1871 41.526 81.9431 40.122C82.6991 38.682 83.0771 37.008 83.0771 35.1C83.0771 33.192 82.6991 31.536 81.9431 30.132C81.1871 28.692 80.1611 27.594 78.8651 26.838C77.6051 26.046 76.1831 25.65 74.5991 25.65C73.0151 25.65 71.5751 26.046 70.2791 26.838C69.0191 27.594 68.0111 28.692 67.2551 30.132C66.4991 31.536 66.1211 33.192 66.1211 35.1C66.1211 37.008 66.4991 38.682 67.2551 40.122C68.0111 41.526 69.0191 42.624 70.2791 43.416C71.5751 44.172 73.0151 44.55 74.5991 44.55ZM118.645 54.864C112.849 54.864 108.331 53.298 105.091 50.166C101.851 47.034 100.231 42.642 100.231 36.99V16.2H112.975V36.612C112.975 39.384 113.461 41.4 114.433 42.66C115.441 43.92 116.881 44.55 118.753 44.55C120.625 44.55 122.047 43.92 123.019 42.66C124.027 41.4 124.531 39.384 124.531 36.612V16.2H137.059V36.99C137.059 42.642 135.439 47.034 132.199 50.166C128.959 53.298 124.441 54.864 118.645 54.864ZM159.1 44.496H155.644V54H142.9V16.2H161.098C164.59 16.2 167.632 16.776 170.224 17.928C172.816 19.08 174.814 20.736 176.218 22.896C177.622 25.056 178.324 27.576 178.324 30.456C178.324 33.156 177.712 35.514 176.488 37.53C175.264 39.546 173.5 41.148 171.196 42.336L179.134 54H165.526L159.1 44.496ZM165.472 30.456C165.472 29.052 165.04 27.972 164.176 27.216C163.312 26.424 162.016 26.028 160.288 26.028H155.644V34.884H160.288C162.016 34.884 163.312 34.506 164.176 33.75C165.04 32.958 165.472 31.86 165.472 30.456ZM37.626 194.864C33.63 194.864 30.03 194.036 26.826 192.38C23.622 190.688 21.102 188.348 19.266 185.36C17.466 182.336 16.566 178.916 16.566 175.1C16.566 171.284 17.466 167.882 19.266 164.894C21.102 161.87 23.622 159.53 26.826 157.874C30.03 156.182 33.63 155.336 37.626 155.336C41.298 155.336 44.574 155.984 47.454 157.28C50.334 158.576 52.71 160.448 54.582 162.896L46.536 170.078C44.196 167.126 41.442 165.65 38.274 165.65C35.61 165.65 33.468 166.514 31.848 168.242C30.228 169.934 29.418 172.22 29.418 175.1C29.418 177.98 30.228 180.284 31.848 182.012C33.468 183.704 35.61 184.55 38.274 184.55C41.442 184.55 44.196 183.074 46.536 180.122L54.582 187.304C52.71 189.752 50.334 191.624 47.454 192.92C44.574 194.216 41.298 194.864 37.626 194.864ZM77.2886 194.864C73.2206 194.864 69.5666 194.018 66.3266 192.326C63.0866 190.634 60.5486 188.294 58.7126 185.306C56.8766 182.282 55.9586 178.88 55.9586 175.1C55.9586 171.32 56.8766 167.936 58.7126 164.948C60.5486 161.924 63.0866 159.566 66.3266 157.874C69.5666 156.182 73.2206 155.336 77.2886 155.336C81.3566 155.336 85.0106 156.182 88.2506 157.874C91.4906 159.566 94.0286 161.924 95.8646 164.948C97.7006 167.936 98.6186 171.32 98.6186 175.1C98.6186 178.88 97.7006 182.282 95.8646 185.306C94.0286 188.294 91.4906 190.634 88.2506 192.326C85.0106 194.018 81.3566 194.864 77.2886 194.864ZM77.2886 184.55C78.8726 184.55 80.2946 184.172 81.5546 183.416C82.8506 182.624 83.8766 181.526 84.6326 180.122C85.3886 178.682 85.7666 177.008 85.7666 175.1C85.7666 173.192 85.3886 171.536 84.6326 170.132C83.8766 168.692 82.8506 167.594 81.5546 166.838C80.2946 166.046 78.8726 165.65 77.2886 165.65C75.7046 165.65 74.2646 166.046 72.9686 166.838C71.7086 167.594 70.7006 168.692 69.9446 170.132C69.1886 171.536 68.8106 173.192 68.8106 175.1C68.8106 177.008 69.1886 178.682 69.9446 180.122C70.7006 181.526 71.7086 182.624 72.9686 183.416C74.2646 184.172 75.7046 184.55 77.2886 184.55ZM115.988 165.812V172.292H131.756V181.904H115.988V194H103.244V156.2H133.97V165.812H115.988ZM150.74 165.812V172.292H166.508V181.904H150.74V194H137.996V156.2H168.722V165.812H150.74ZM204.176 184.388V194H172.748V156.2H203.474V165.812H185.276V170.24H201.26V179.42H185.276V184.388H204.176ZM240.51 184.388V194H209.082V156.2H239.808V165.812H221.61V170.24H237.594V179.42H221.61V184.388H240.51Z" fill="#415167"/>
<path d="M36.276 86.2C39.768 86.2 42.81 86.776 45.402 87.928C47.994 89.08 49.992 90.736 51.396 92.896C52.8 95.056 53.502 97.576 53.502 100.456C53.502 103.336 52.8 105.856 51.396 108.016C49.992 110.176 47.994 111.832 45.402 112.984C42.81 114.136 39.768 114.712 36.276 114.712H30.822V124H18.078V86.2H36.276ZM35.466 104.884C37.194 104.884 38.49 104.506 39.354 103.75C40.218 102.958 40.65 101.86 40.65 100.456C40.65 99.052 40.218 97.972 39.354 97.216C38.49 96.424 37.194 96.028 35.466 96.028H30.822V104.884H35.466ZM89.1095 114.388V124H57.6815V86.2H88.4075V95.812H70.2095V100.24H86.1935V109.42H70.2095V114.388H89.1095ZM110.216 114.496H106.76V124H94.0155V86.2H112.214C115.706 86.2 118.748 86.776 121.34 87.928C123.932 89.08 125.93 90.736 127.334 92.896C128.738 95.056 129.44 97.576 129.44 100.456C129.44 103.156 128.828 105.514 127.604 107.53C126.38 109.546 124.616 111.148 122.312 112.336L130.25 124H116.642L110.216 114.496ZM116.588 100.456C116.588 99.052 116.156 97.972 115.292 97.216C114.428 96.424 113.132 96.028 111.404 96.028H106.76V104.884H111.404C113.132 104.884 114.428 104.506 115.292 103.75C116.156 102.958 116.588 101.86 116.588 100.456ZM148.346 124.864C145.214 124.864 142.154 124.522 139.166 123.838C136.214 123.118 133.784 122.164 131.876 120.976L135.98 111.688C137.78 112.732 139.796 113.578 142.028 114.226C144.26 114.838 146.402 115.144 148.454 115.144C150.218 115.144 151.478 114.982 152.234 114.658C152.99 114.298 153.368 113.776 153.368 113.092C153.368 112.3 152.864 111.706 151.856 111.31C150.884 110.914 149.264 110.482 146.996 110.014C144.08 109.402 141.65 108.754 139.706 108.07C137.762 107.35 136.07 106.198 134.63 104.614C133.19 102.994 132.47 100.816 132.47 98.08C132.47 95.704 133.136 93.544 134.468 91.6C135.8 89.656 137.78 88.126 140.408 87.01C143.072 85.894 146.294 85.336 150.074 85.336C152.666 85.336 155.204 85.624 157.688 86.2C160.208 86.74 162.422 87.55 164.33 88.63L160.496 97.864C156.788 95.992 153.278 95.056 149.966 95.056C146.69 95.056 145.052 95.848 145.052 97.432C145.052 98.188 145.538 98.764 146.51 99.16C147.482 99.52 149.084 99.916 151.316 100.348C154.196 100.888 156.626 101.518 158.606 102.238C160.586 102.922 162.296 104.056 163.736 105.64C165.212 107.224 165.95 109.384 165.95 112.12C165.95 114.496 165.284 116.656 163.952 118.6C162.62 120.508 160.622 122.038 157.958 123.19C155.33 124.306 152.126 124.864 148.346 124.864ZM189.56 124.864C185.492 124.864 181.838 124.018 178.598 122.326C175.358 120.634 172.82 118.294 170.984 115.306C169.148 112.282 168.23 108.88 168.23 105.1C168.23 101.32 169.148 97.936 170.984 94.948C172.82 91.924 175.358 89.566 178.598 87.874C181.838 86.182 185.492 85.336 189.56 85.336C193.628 85.336 197.282 86.182 200.522 87.874C203.762 89.566 206.3 91.924 208.136 94.948C209.972 97.936 210.89 101.32 210.89 105.1C210.89 108.88 209.972 112.282 208.136 115.306C206.3 118.294 203.762 120.634 200.522 122.326C197.282 124.018 193.628 124.864 189.56 124.864ZM189.56 114.55C191.144 114.55 192.566 114.172 193.826 113.416C195.122 112.624 196.148 111.526 196.904 110.122C197.66 108.682 198.038 107.008 198.038 105.1C198.038 103.192 197.66 101.536 196.904 100.132C196.148 98.692 195.122 97.594 193.826 96.838C192.566 96.046 191.144 95.65 189.56 95.65C187.976 95.65 186.536 96.046 185.24 96.838C183.98 97.594 182.972 98.692 182.216 100.132C181.46 101.536 181.082 103.192 181.082 105.1C181.082 107.008 181.46 108.682 182.216 110.122C182.972 111.526 183.98 112.624 185.24 113.416C186.536 114.172 187.976 114.55 189.56 114.55ZM252.776 86.2V124H242.3L227.936 106.828V124H215.516V86.2H225.992L240.356 103.372V86.2H252.776ZM284.674 117.412H270.31L267.772 124H254.812L271.336 86.2H283.864L300.388 124H287.212L284.674 117.412ZM281.164 108.232L277.492 98.728L273.82 108.232H281.164ZM302.422 86.2H315.166V114.118H332.23V124H302.422V86.2ZM335.75 86.2H348.494V124H335.75V86.2ZM388.001 114.118V124H353.279V116.17L370.559 96.082H353.819V86.2H387.137V94.03L369.857 114.118H388.001ZM423.129 114.388V124H391.701V86.2H422.427V95.812H404.229V100.24H420.213V109.42H404.229V114.388H423.129ZM428.035 86.2H446.665C450.877 86.2 454.585 86.974 457.789 88.522C461.029 90.034 463.531 92.212 465.295 95.056C467.095 97.9 467.995 101.248 467.995 105.1C467.995 108.952 467.095 112.3 465.295 115.144C463.531 117.988 461.029 120.184 457.789 121.732C454.585 123.244 450.877 124 446.665 124H428.035V86.2ZM446.125 114.064C448.861 114.064 451.039 113.29 452.659 111.742C454.315 110.158 455.143 107.944 455.143 105.1C455.143 102.256 454.315 100.06 452.659 98.512C451.039 96.928 448.861 96.136 446.125 96.136H440.779V114.064H446.125Z" fill="#F9FBFF"/>
</svg>
